# xmcd CD database file
#
# Track frame offsets:
#	182
#	13175
#	25387
#	38325
#	50817
#	60667
#	71887
#	83835
#	97775
#	112025
#
# Disc length: 1646 seconds
#
# Revision: 4
# Processed by: cddbd v1.5PL3 Copyright (c) Steve Scherf et al.
# Submitted via: CDex 1.51
#
DISCID=80066c0a
DTITLE=Merle Haggard And Conway Twitty - Country's Finest
DYEAR=1998
DGENRE=Country
TTITLE0=The Fightin' Side Of Me
TTITLE1=Okia From Muskogee
TTITLE2=Sing Me Back Home
TTITLE3=If We Make It Through December
TTITLE4=Mama Tried
TTITLE5=Hello Darlin'
TTITLE6=She Needs Someone Hold Her
TTITLE7=Fifteen Years Ago
TTITLE8=You've Never Been This Far Before
TTITLE9=To See An Angel Cry
EXTD=YEAR: 1998
EXTT0=
EXTT1=
EXTT2=
EXTT3=
EXTT4=
EXTT5=
EXTT6=
EXTT7=
EXTT8=
EXTT9=
PLAYORDER=
